# xmcd
#
# Track frame offsets:
#	150
#	15542
#	32150
#	45165
#	60435
#	76427
#	90340
#	101627
#	113035
#	124422
#	137212
#	151245
#	161940
#
# Disc length: 2352 seconds
#
# Revision: 0
# Processed by: cddbd v1.5.2PL0 Copyright (c) Steve Scherf et al.
# Submitted via: dBpowerAMP V4.0
#
DISCID=9d092e0d
DTITLE=Leif Kerstein - To Sider...
DYEAR=1994
DGENRE=Country
TTITLE0=Sommer, sol og varme dage
TTITLE1=Gid jeg aldrig møder en som dig
TTITLE2=Her i livet går det op og ned
TTITLE3=Sommerrose
TTITLE4=Dejlige dame
TTITLE5=Den tomme stald
TTITLE6=Altid på vej
TTITLE7=Solen kommer frem
TTITLE8=Jeg tilgi'r dig altid
TTITLE9=Lad os følges ad
TTITLE10=Du må, hvad du vil
TTITLE11=Er det ikke herligt
TTITLE12=Jeg er no'et for mig selv
EXTD=Leif Kerstein - To Sider...
EXTT0=
EXTT1=
EXTT2=
EXTT3=
EXTT4=
EXTT5=
EXTT6=
EXTT7=
EXTT8=
EXTT9=
EXTT10=
EXTT11=
EXTT12=
PLAYORDER=
